<?xml version="1.0" standalone="no"?>
<svg viewBox="0 0 200 200" xmlns="http://www.w3.org/2000/svg">
  <defs>
    <linearGradient id="grad2" x1="0%" y1="0%" x2="100%" y2="0%">
      <stop offset="0%" style="stop-color:rgb(28, 167, 236);stop-opacity:1" />
      <stop offset="100%" style="stop-color:rgb(31, 47, 152);,0,stop-opacity:1" />
    </linearGradient>
  </defs>
  <path fill="url(#grad2)" d="M30.8,-39C43.9,-25.8,61.2,-19.8,65,-9.7C68.8,0.3,59.2,14.5,50.4,28.4C41.5,42.4,33.5,56.2,20.1,65.6C6.7,75,-12.1,80,-30.4,76.5C-48.7,72.9,-66.4,60.7,-74.5,44.2C-82.5,27.7,-80.8,6.9,-74.5,-10.4C-68.2,-27.7,-57.3,-41.5,-44.1,-54.7C-30.9,-67.9,-15.5,-80.4,-3.3,-76.5C8.9,-72.6,17.8,-52.2,30.8,-39Z" transform="translate(100 100)" />
</svg>
